<?xml version="1.0" standalone="no"?><!DOCTYPE svg PUBLIC "-//W3C//DTD SVG 1.1//EN" "http://www.w3.org/Graphics/SVG/1.1/DTD/svg11.dtd"><svg t="1737978592127" class="icon" viewBox="0 0 1024 1024" version="1.1" xmlns="http://www.w3.org/2000/svg" p-id="2713" xmlns:xlink="http://www.w3.org/1999/xlink" width="200" height="200"><path d="M690.70866 333.35325c49.640584 82.136695 44.667316 268.000823 44.667316 268.000823S709.115891 421.37805 556.620755 422.642856l0 312.62209-18.49319 0c-23.294542 26.608008-65.953108 44.667316-115.417683 44.667316-73.979922 0-134.086881-39.957037-134.086881-89.289606 0-49.378617 60.106959-89.289606 134.086881-89.289606 15.70161 0 30.621415 2.136663 44.665269 5.496178L467.375152 243.934708l89.245603 0C556.620755 243.934708 653.107273 271.107581 690.70866 333.35325zM958.70846 243.934708l0 535.9996c0 98.711186-80.000032 178.709171-178.711218 178.709171L243.998665 958.64348c-98.623181 0-178.709171-79.997985-178.709171-178.709171L65.289494 243.934708c0-98.625228 80.08599-178.579211 178.709171-178.579211l535.998577 0C878.708428 65.355497 958.70846 145.30948 958.70846 243.934708zM869.374852 288.687982c0-74.067926-60.021002-134.042879-133.998877-134.042879L288.623002 154.645103c-73.979922 0-133.912919 59.974953-133.912919 134.042879l0 446.577988c0 74.023924 59.932997 134.086881 133.912919 134.086881l446.752973 0c73.977875 0 133.998877-60.062957 133.998877-134.086881L869.374852 288.687982z" p-id="2714"></path></svg>